<svg xmlns:xlink="http://www.w3.org/1999/xlink" xmlns="http://www.w3.org/2000/svg" version="1.1" viewBox="0 0 159 33" height="33px" width="159px">
    
    <title>full-logo</title>
    <desc>Created with Sketch.</desc>
    <g fill-rule="evenodd" fill="none" stroke-width="1" stroke="none" id="Page-1">
        <g transform="translate(-959.000000, -6933.000000)" id="Education-Template-(Option#4)-Copy">
            <g transform="translate(802.000000, 6933.000000)" id="footer">
                <g transform="translate(157.000000, 0.000000)" id="full-logo">
                    <g transform="translate(0.000000, 1.000000)" id="icon">
                        <path fill="#3555DB" fill-opacity="0.25" id="Rectangle" d="M15,0 L15,0 L15,0 L15,15 L0,15 C-1.01453063e-15,6.71572875 6.71572875,1.52179594e-15 15,0 Z"></path>
                        <path fill="#3555DB" id="Rectangle" d="M0,15 L15,15 C15,23.2842712 8.28427125,30 0,30 L0,30 L0,30 L0,15 Z"></path>
                        <path fill="#D172EE" fill-opacity="0.5" id="Rectangle" d="M15,15 L30,15 L30,30 C21.7157288,30 15,23.2842712 15,15 L15,15 L15,15 Z"></path>
                        <path fill="#D172EE" id="Rectangle" d="M15,0 C23.2842712,-1.52179594e-15 30,6.71572875 30,15 L30,15 L30,15 L15,15 L15,0 Z"></path>
                    </g>
                    <g fill-rule="nonzero" transform="translate(45.000000, 0.000000)" id="text">
                        <path fill="#111A27" stroke="#000000" id="ARTISTRY" d="M2.34,15 L3.52,11.74 L9.72,11.74 L10.9,15 L12.86,15 L7.66,1.16 L5.6,1.16 L0.38,15 L2.34,15 Z M9.2,10.32 L4.04,10.32 L6.62,3.2 L9.2,10.32 Z M18.52,15 L18.52,9.24 L20.5,9.24 L24.18,15 L26.24,15 L22.4,9.18 C23.6133333,9.00666667 24.54,8.57 25.18,7.87 C25.82,7.17 26.14,6.24666667 26.14,5.1 C26.14,3.83333333 25.74,2.81666667 24.94,2.05 C24.14,1.28333333 22.94,0.9 21.34,0.9 L21.34,0.9 L16.7,0.9 L16.7,15 L18.52,15 Z M21.18,7.92 L18.52,7.92 L18.52,2.48 L21.18,2.48 C23.2466667,2.48 24.28,3.38666667 24.28,5.2 C24.28,7.01333333 23.2466667,7.92 21.18,7.92 L21.18,7.92 Z M35.02,15 L35.02,2.38 L39,2.38 L39,0.9 L29.22,0.9 L29.22,2.38 L33.2,2.38 L33.2,15 L35.02,15 Z M44.62,15 L44.62,0.9 L42.8,0.9 L42.8,15 L44.62,15 Z M54.1,15.14 C55.06,15.14 55.8666667,14.96 56.52,14.6 C57.1733333,14.24 57.66,13.7733333 57.98,13.2 C58.3,12.6266667 58.46,12.0066667 58.46,11.34 C58.46,10.4466667 58.2666667,9.73 57.88,9.19 C57.4933333,8.65 57.0233333,8.24666667 56.47,7.98 C55.9166667,7.71333333 55.1866667,7.43333333 54.28,7.14 C53.5333333,6.9 52.9466667,6.68333333 52.52,6.49 C52.0933333,6.29666667 51.7366667,6.03 51.45,5.69 C51.1633333,5.35 51.02,4.90666667 51.02,4.36 C51.02,3.66666667 51.24,3.13 51.68,2.75 C52.12,2.37 52.7066667,2.18 53.44,2.18 C54.24,2.18 54.8733333,2.39333333 55.34,2.82 C55.8066667,3.24666667 56.0933333,3.74 56.2,4.3 L56.2,4.3 L58.16,4.3 C58.0266667,3.26 57.5533333,2.40333333 56.74,1.73 C55.9266667,1.05666667 54.8266667,0.72 53.44,0.72 C52.5466667,0.72 51.77,0.873333333 51.11,1.18 C50.45,1.48666667 49.9433333,1.92 49.59,2.48 C49.2366667,3.04 49.06,3.68666667 49.06,4.42 C49.06,5.27333333 49.25,5.96 49.63,6.48 C50.01,7 50.47,7.39 51.01,7.65 C51.55,7.91 52.2666667,8.18666667 53.16,8.48 C53.92,8.72 54.52,8.94333333 54.96,9.15 C55.4,9.35666667 55.77,9.64 56.07,10 C56.37,10.36 56.52,10.8266667 56.52,11.4 C56.52,12.0666667 56.3066667,12.6133333 55.88,13.04 C55.4533333,13.4666667 54.84,13.68 54.04,13.68 C53.4266667,13.68 52.9033333,13.5566667 52.47,13.31 C52.0366667,13.0633333 51.7033333,12.75 51.47,12.37 C51.2366667,11.99 51.1,11.6 51.06,11.2 L51.06,11.2 L49.12,11.2 C49.1866667,11.96 49.4366667,12.6366667 49.87,13.23 C50.3033333,13.8233333 50.8833333,14.29 51.61,14.63 C52.3366667,14.97 53.1666667,15.14 54.1,15.14 Z M67.56,15 L67.56,2.38 L71.54,2.38 L71.54,0.9 L61.76,0.9 L61.76,2.38 L65.74,2.38 L65.74,15 L67.56,15 Z M77.16,15 L77.16,9.24 L79.14,9.24 L82.82,15 L84.88,15 L81.04,9.18 C82.2533333,9.00666667 83.18,8.57 83.82,7.87 C84.46,7.17 84.78,6.24666667 84.78,5.1 C84.78,3.83333333 84.38,2.81666667 83.58,2.05 C82.78,1.28333333 81.58,0.9 79.98,0.9 L79.98,0.9 L75.34,0.9 L75.34,15 L77.16,15 Z M79.82,7.92 L77.16,7.92 L77.16,2.48 L79.82,2.48 C81.8866667,2.48 82.92,3.38666667 82.92,5.2 C82.92,7.01333333 81.8866667,7.92 79.82,7.92 L79.82,7.92 Z M94.4,15 L94.4,9.66 L99.02,0.9 L96.94,0.9 L93.5,7.72 L90.04,0.9 L87.92,0.9 L92.56,9.66 L92.56,15 L94.4,15 Z"></path>
                        <path fill="#7989A5" id="COLLEGEOFDESIGN" d="M4.62,32.072 C5.652,32.072 6.504,31.818 7.176,31.31 C7.848,30.802 8.312,30.108 8.568,29.228 L8.568,29.228 L7.416,29.228 C7.2,29.788 6.852,30.234 6.372,30.566 C5.892,30.898 5.304,31.064 4.608,31.064 C4.056,31.064 3.562,30.93 3.126,30.662 C2.69,30.394 2.346,30.012 2.094,29.516 C1.842,29.02 1.716,28.44 1.716,27.776 C1.716,27.104 1.842,26.518 2.094,26.018 C2.346,25.518 2.69,25.134 3.126,24.866 C3.562,24.598 4.056,24.464 4.608,24.464 C5.304,24.464 5.892,24.63 6.372,24.962 C6.852,25.294 7.2,25.74 7.416,26.3 L7.416,26.3 L8.568,26.3 C8.312,25.42 7.848,24.726 7.176,24.218 C6.504,23.71 5.652,23.456 4.62,23.456 C3.828,23.456 3.128,23.638 2.52,24.002 C1.912,24.366 1.438,24.876 1.098,25.532 C0.758,26.188 0.588,26.936 0.588,27.776 C0.588,28.608 0.758,29.35 1.098,30.002 C1.438,30.654 1.912,31.162 2.52,31.526 C3.128,31.89 3.828,32.072 4.62,32.072 Z M13.908,32.096 C14.692,32.096 15.398,31.912 16.026,31.544 C16.654,31.176 17.148,30.662 17.508,30.002 C17.868,29.342 18.048,28.596 18.048,27.764 C18.048,26.932 17.868,26.186 17.508,25.526 C17.148,24.866 16.654,24.352 16.026,23.984 C15.398,23.616 14.692,23.432 13.908,23.432 C13.124,23.432 12.414,23.616 11.778,23.984 C11.142,24.352 10.644,24.866 10.284,25.526 C9.924,26.186 9.744,26.932 9.744,27.764 C9.744,28.596 9.924,29.342 10.284,30.002 C10.644,30.662 11.142,31.176 11.778,31.544 C12.414,31.912 13.124,32.096 13.908,32.096 Z M13.908,31.076 C13.324,31.076 12.802,30.942 12.342,30.674 C11.882,30.406 11.522,30.02 11.262,29.516 C11.002,29.012 10.872,28.428 10.872,27.764 C10.872,27.092 11.002,26.506 11.262,26.006 C11.522,25.506 11.882,25.122 12.342,24.854 C12.802,24.586 13.324,24.452 13.908,24.452 C14.484,24.452 15.002,24.586 15.462,24.854 C15.922,25.122 16.282,25.506 16.542,26.006 C16.802,26.506 16.932,27.092 16.932,27.764 C16.932,28.428 16.802,29.01 16.542,29.51 C16.282,30.01 15.922,30.396 15.462,30.668 C15.002,30.94 14.484,31.076 13.908,31.076 Z M23.616,32 L23.616,31.148 L20.616,31.148 L20.616,23.54 L19.524,23.54 L19.524,32 L23.616,32 Z M28.824,32 L28.824,31.148 L25.824,31.148 L25.824,23.54 L24.732,23.54 L24.732,32 L28.824,32 Z M34.608,32 L34.608,31.112 L31.032,31.112 L31.032,28.16 L34.248,28.16 L34.248,27.32 L31.032,27.32 L31.032,24.428 L34.608,24.428 L34.608,23.54 L29.94,23.54 L29.94,32 L34.608,32 Z M39.864,32.084 C40.608,32.084 41.272,31.924 41.856,31.604 C42.44,31.284 42.904,30.852 43.248,30.308 C43.592,29.764 43.8,29.156 43.872,28.484 L43.872,28.484 L43.872,27.476 L39.624,27.476 L39.624,28.292 L42.948,28.292 C42.892,28.868 42.726,29.37 42.45,29.798 C42.174,30.226 41.82,30.552 41.388,30.776 C40.956,31 40.48,31.112 39.96,31.112 C39.352,31.112 38.814,30.978 38.346,30.71 C37.878,30.442 37.512,30.058 37.248,29.558 C36.984,29.058 36.852,28.464 36.852,27.776 C36.852,27.104 36.982,26.52 37.242,26.024 C37.502,25.528 37.86,25.146 38.316,24.878 C38.772,24.61 39.288,24.476 39.864,24.476 C40.504,24.476 41.058,24.632 41.526,24.944 C41.994,25.256 42.328,25.668 42.528,26.18 L42.528,26.18 L43.68,26.18 C43.448,25.34 42.998,24.676 42.33,24.188 C41.662,23.7 40.836,23.456 39.852,23.456 C39.044,23.456 38.328,23.64 37.704,24.008 C37.08,24.376 36.594,24.886 36.246,25.538 C35.898,26.19 35.724,26.936 35.724,27.776 C35.724,28.616 35.898,29.362 36.246,30.014 C36.594,30.666 37.08,31.174 37.704,31.538 C38.328,31.902 39.048,32.084 39.864,32.084 Z M50.016,32 L50.016,31.112 L46.44,31.112 L46.44,28.16 L49.656,28.16 L49.656,27.32 L46.44,27.32 L46.44,24.428 L50.016,24.428 L50.016,23.54 L45.348,23.54 L45.348,32 L50.016,32 Z M58.26,32.096 C59.044,32.096 59.75,31.912 60.378,31.544 C61.006,31.176 61.5,30.662 61.86,30.002 C62.22,29.342 62.4,28.596 62.4,27.764 C62.4,26.932 62.22,26.186 61.86,25.526 C61.5,24.866 61.006,24.352 60.378,23.984 C59.75,23.616 59.044,23.432 58.26,23.432 C57.476,23.432 56.766,23.616 56.13,23.984 C55.494,24.352 54.996,24.866 54.636,25.526 C54.276,26.186 54.096,26.932 54.096,27.764 C54.096,28.596 54.276,29.342 54.636,30.002 C54.996,30.662 55.494,31.176 56.13,31.544 C56.766,31.912 57.476,32.096 58.26,32.096 Z M58.26,31.076 C57.676,31.076 57.154,30.942 56.694,30.674 C56.234,30.406 55.874,30.02 55.614,29.516 C55.354,29.012 55.224,28.428 55.224,27.764 C55.224,27.092 55.354,26.506 55.614,26.006 C55.874,25.506 56.234,25.122 56.694,24.854 C57.154,24.586 57.676,24.452 58.26,24.452 C58.836,24.452 59.354,24.586 59.814,24.854 C60.274,25.122 60.634,25.506 60.894,26.006 C61.154,26.506 61.284,27.092 61.284,27.764 C61.284,28.428 61.154,29.01 60.894,29.51 C60.634,30.01 60.274,30.396 59.814,30.668 C59.354,30.94 58.836,31.076 58.26,31.076 Z M64.968,32 L64.968,28.208 L68.1,28.208 L68.1,27.356 L64.968,27.356 L64.968,24.428 L68.664,24.428 L68.664,23.54 L63.876,23.54 L63.876,32 L64.968,32 Z M75.612,32 C76.548,32 77.35,31.826 78.018,31.478 C78.686,31.13 79.192,30.638 79.536,30.002 C79.88,29.366 80.052,28.62 80.052,27.764 C80.052,26.9 79.88,26.15 79.536,25.514 C79.192,24.878 78.686,24.39 78.018,24.05 C77.35,23.71 76.548,23.54 75.612,23.54 L75.612,23.54 L72.924,23.54 L72.924,32 L75.612,32 Z M75.528,31.016 L74.016,31.016 L74.016,24.5 L75.528,24.5 C76.64,24.5 77.486,24.786 78.066,25.358 C78.646,25.93 78.936,26.732 78.936,27.764 C78.936,28.796 78.644,29.596 78.06,30.164 C77.476,30.732 76.632,31.016 75.528,31.016 L75.528,31.016 Z M86.196,32 L86.196,31.112 L82.62,31.112 L82.62,28.16 L85.836,28.16 L85.836,27.32 L82.62,27.32 L82.62,24.428 L86.196,24.428 L86.196,23.54 L81.528,23.54 L81.528,32 L86.196,32 Z M90.336,32.084 C90.912,32.084 91.396,31.976 91.788,31.76 C92.18,31.544 92.472,31.264 92.664,30.92 C92.856,30.576 92.952,30.204 92.952,29.804 C92.952,29.268 92.836,28.838 92.604,28.514 C92.372,28.19 92.09,27.948 91.758,27.788 C91.426,27.628 90.988,27.46 90.444,27.284 C89.996,27.14 89.644,27.01 89.388,26.894 C89.132,26.778 88.918,26.618 88.746,26.414 C88.574,26.21 88.488,25.944 88.488,25.616 C88.488,25.2 88.62,24.878 88.884,24.65 C89.148,24.422 89.5,24.308 89.94,24.308 C90.42,24.308 90.8,24.436 91.08,24.692 C91.36,24.948 91.532,25.244 91.596,25.58 L91.596,25.58 L92.772,25.58 C92.692,24.956 92.408,24.442 91.92,24.038 C91.432,23.634 90.772,23.432 89.94,23.432 C89.404,23.432 88.938,23.524 88.542,23.708 C88.146,23.892 87.842,24.152 87.63,24.488 C87.418,24.824 87.312,25.212 87.312,25.652 C87.312,26.164 87.426,26.576 87.654,26.888 C87.882,27.2 88.158,27.434 88.482,27.59 C88.806,27.746 89.236,27.912 89.772,28.088 C90.228,28.232 90.588,28.366 90.852,28.49 C91.116,28.614 91.338,28.784 91.518,29 C91.698,29.216 91.788,29.496 91.788,29.84 C91.788,30.24 91.66,30.568 91.404,30.824 C91.148,31.08 90.78,31.208 90.3,31.208 C89.932,31.208 89.618,31.134 89.358,30.986 C89.098,30.838 88.898,30.65 88.758,30.422 C88.618,30.194 88.536,29.96 88.512,29.72 L88.512,29.72 L87.348,29.72 C87.388,30.176 87.538,30.582 87.798,30.938 C88.058,31.294 88.406,31.574 88.842,31.778 C89.278,31.982 89.776,32.084 90.336,32.084 Z M95.508,32 L95.508,23.54 L94.416,23.54 L94.416,32 L95.508,32 Z M101.112,32.084 C101.856,32.084 102.52,31.924 103.104,31.604 C103.688,31.284 104.152,30.852 104.496,30.308 C104.84,29.764 105.048,29.156 105.12,28.484 L105.12,28.484 L105.12,27.476 L100.872,27.476 L100.872,28.292 L104.196,28.292 C104.14,28.868 103.974,29.37 103.698,29.798 C103.422,30.226 103.068,30.552 102.636,30.776 C102.204,31 101.728,31.112 101.208,31.112 C100.6,31.112 100.062,30.978 99.594,30.71 C99.126,30.442 98.76,30.058 98.496,29.558 C98.232,29.058 98.1,28.464 98.1,27.776 C98.1,27.104 98.23,26.52 98.49,26.024 C98.75,25.528 99.108,25.146 99.564,24.878 C100.02,24.61 100.536,24.476 101.112,24.476 C101.752,24.476 102.306,24.632 102.774,24.944 C103.242,25.256 103.576,25.668 103.776,26.18 L103.776,26.18 L104.928,26.18 C104.696,25.34 104.246,24.676 103.578,24.188 C102.91,23.7 102.084,23.456 101.1,23.456 C100.292,23.456 99.576,23.64 98.952,24.008 C98.328,24.376 97.842,24.886 97.494,25.538 C97.146,26.19 96.972,26.936 96.972,27.776 C96.972,28.616 97.146,29.362 97.494,30.014 C97.842,30.666 98.328,31.174 98.952,31.538 C99.576,31.902 100.296,32.084 101.112,32.084 Z M107.688,32 L107.688,25.316 L112.08,32 L113.172,32 L113.172,23.54 L112.08,23.54 L112.08,30.236 L107.688,23.54 L106.596,23.54 L106.596,32 L107.688,32 Z"></path>
                    </g>
                </g>
            </g>
        </g>
    </g>
</svg>